<svg xmlns="http://www.w3.org/2000/svg" version="1.1" xmlns:xlink="http://www.w3.org/1999/xlink" width="200" height="200"><svg xmlns="http://www.w3.org/2000/svg" version="1.1" xmlns:xlink="http://www.w3.org/1999/xlink" viewBox="0 0 200 200"><rect width="200" height="200" fill="url('#gradient')"></rect><defs><linearGradient id="SvgjsLinearGradient1007" gradientTransform="rotate(44 0.5 0.5)"><stop offset="0%" stop-color="#003366"></stop><stop offset="100%" stop-color="#ffffff"></stop></linearGradient></defs><g><g fill="#353535" transform="matrix(5.135692393424352,0,0,5.135692393424352,6.890012142385203,136.51414846942166)" stroke="#ffffff" stroke-width="0.2"><path d="M11.65-12.46L4.92-2.64L11.72-2.64L11.72 0L0.64 0L0.64-1.81L7.42-11.57L0.61-11.57L0.61-14.22L11.65-14.22L11.65-12.46ZM22.09-8.57L22.09-6.03L16.70-6.03L16.70-2.64L23.07-2.64L23.07 0L13.27 0L13.27-14.22L23.09-14.22L23.09-11.57L16.70-11.57L16.70-8.57L22.09-8.57ZM30.08-4.82L27.89-4.82L27.89 0L24.46 0L24.46-14.22L30.14-14.22Q31.77-14.22 33.02-13.62Q34.28-13.02 34.97-11.91Q35.65-10.80 35.65-9.39L35.65-9.39Q35.65-7.31 34.17-6.07Q32.68-4.82 30.08-4.82L30.08-4.82ZM27.89-11.57L27.89-7.47L30.14-7.47Q31.13-7.47 31.66-7.97Q32.18-8.47 32.18-9.38L32.18-9.38Q32.18-10.37 31.64-10.97Q31.10-11.56 30.18-11.57L30.18-11.57L27.89-11.57Z"></path></g></g></svg><style>@media (prefers-color-scheme: light) { :root { filter: none; } }
@media (prefers-color-scheme: dark) { :root { filter: invert(100%); } }
</style></svg>